# xmcd
#
# Track frame offsets:
#	4500
#	9000
#	13500
#	18000
#	71586
#	89174
#	106874
#	125839
#	146164
#	161014
#	178583
#	199508
#	216796
#	237609
#	255722
#	281447
#	296035
#
# Disc length: 4350 seconds
#
# Revision: 0
# Processed by: cddbd v1.5.1PL0 Copyright (c) Steve Scherf et al.
# Submitted via: EasyCDDAExtractor 5.0.2.1
#
DISCID=f810c211
DTITLE=Various Artist - 西洋情歌精選
DYEAR=1900
DGENRE=
TTITLE0=多位演出者 - careless whisper (愛的呢喃)
TTITLE1=without you (沒有你)
TTITLE2=because I love you (因為我愛你)
TTITLE3=yesterday once more (昨日重現)
TTITLE4=woman in love (戀愛中的女人)
TTITLE5=loss love (失落的愛)
TTITLE6=take my breath a way
TTITLE7=nothing's gonna stor us now
TTITLE8=satom hakken den
TTITLE9=多位演出者 - love in love
TTITLE10=casablanca (卡薩布蘭卡)
TTITLE11=nothing's gonna change my love for you (此情不渝)
TTITLE12=the one you love(所愛的人)
TTITLE13=within you'll remain (把心留住)
TTITLE14=多位演出者 - young love (全心愛你)
TTITLE15=愛你一萬年
TTITLE16=last christmas (去年聖誕)
EXTD=
EXTT0=
EXTT1=
EXTT2=
EXTT3=
EXTT4=
EXTT5=
EXTT6=
EXTT7=
EXTT8=
EXTT9=
EXTT10=
EXTT11=
EXTT12=
EXTT13=
EXTT14=
EXTT15=
EXTT16=
PLAYORDER=
